<svg version="1.1" id="Layer_1" xmlns="http://www.w3.org/2000/svg" xmlns:xlink="http://www.w3.org/1999/xlink" x="0px" y="0px"
	 width="100%" viewBox="0 0 500 500" enable-background="new 0 0 500 500" xml:space="preserve">
<path fill="#FFFFFF" opacity="1.000000" stroke="none" 
	d="
M328.000000,501.000000 
	C218.666687,501.000000 109.833382,501.000000 1.000058,501.000000 
	C1.000039,334.333405 1.000039,167.666794 1.000019,1.000148 
	C167.666565,1.000099 334.333130,1.000099 500.999756,1.000049 
	C500.999847,167.666519 500.999847,334.333038 500.999939,500.999786 
	C443.500000,501.000000 386.000000,501.000000 328.000000,501.000000 
M242.219238,309.226593 
	C241.916245,309.030731 241.613235,308.834900 241.417908,308.708771 
	C241.417908,308.708771 241.452148,308.585144 241.274918,307.949341 
	C231.012741,295.938690 217.560104,289.222565 202.262741,283.843018 
	C202.515732,286.526947 202.680984,288.280182 202.711166,290.801697 
	C203.356628,296.244537 207.380096,297.995514 211.900803,299.136627 
	C224.546921,302.328766 236.303879,307.216431 246.358459,316.307831 
	C245.566208,314.877014 244.773972,313.446198 243.891846,311.473999 
	C243.618179,311.253265 243.344513,311.032532 243.066879,310.952026 
	C243.066879,310.952026 243.205551,310.930847 243.078659,310.358185 
	C242.782440,310.136719 242.486221,309.915222 242.190292,309.860870 
	C242.190292,309.860870 242.343002,309.792999 242.219238,309.226593 
M257.735138,284.067383 
	C257.877441,283.736267 258.019714,283.405151 258.093933,283.079285 
	C258.093933,283.079285 258.141632,283.128784 258.756317,282.866119 
	C276.065826,262.845062 298.607147,251.307343 323.243103,243.231918 
	C332.099548,240.328857 334.339508,237.304718 333.977997,227.048019 
	C333.977997,222.437119 333.977997,217.826218 333.977997,212.838196 
	C332.792816,213.190887 331.994507,213.326019 331.285675,213.654343 
	C312.497803,222.356735 294.970245,233.030182 279.823639,247.269943 
	C269.183441,257.273102 260.259979,268.531433 255.908600,282.796478 
	C255.611542,283.770355 255.959518,284.940979 256.550232,285.772064 
	C256.806366,285.244171 257.062531,284.716248 257.186523,284.153534 
	C257.186523,284.153534 257.227325,284.283966 257.735138,284.067383 
M260.600403,134.636337 
	C257.696869,139.640945 257.801819,145.138901 256.829071,150.460144 
	C257.518036,150.569443 258.206970,150.678741 258.895935,150.788025 
	C259.594482,145.199692 260.293060,139.611343 261.183197,133.710052 
	C261.274902,133.526367 261.366577,133.342682 261.250793,133.574677 
	C261.300110,133.455399 261.171417,133.766495 260.600403,134.636337 
M260.452026,308.103516 
	C260.294159,308.410706 260.136322,308.717896 259.393799,309.361267 
	C258.172119,311.368378 256.950439,313.375519 255.728775,315.382660 
	C256.027069,315.678528 256.325378,315.974365 256.623688,316.270233 
	C266.760284,306.501251 279.333374,301.929565 292.495056,298.394684 
	C296.347717,297.359985 299.758728,294.944702 299.654663,289.194031 
	C299.654663,287.620331 299.654663,286.046600 299.654663,283.791321 
	C284.581604,289.412933 270.887970,295.677582 260.956085,307.957520 
	C260.956085,307.957520 260.928040,307.874054 260.452026,308.103516 
M243.306671,296.834229 
	C243.306671,296.834229 243.423203,296.712585 243.267456,296.029633 
	C240.891388,292.650970 238.798248,289.024353 236.091171,285.935852 
	C223.135162,271.154266 206.583328,261.565704 188.809540,253.851624 
	C183.913040,251.726486 178.887207,249.899338 173.159058,247.634293 
	C173.413269,252.179962 173.605560,255.618362 173.619125,259.892731 
	C173.775787,266.570496 175.566742,269.131714 181.714310,271.317932 
	C183.426254,271.926727 185.166031,272.504608 186.937973,272.890228 
	C208.608871,277.606140 228.265640,286.365082 245.747025,302.718994 
	C244.906891,300.242279 244.522949,299.110382 244.055466,297.401306 
	C243.784241,297.160461 243.513016,296.919617 243.306671,296.834229 
M382.090027,351.065521 
	C386.592957,352.996796 386.176880,348.905975 386.681488,346.841156 
	C386.955627,345.719299 385.436523,342.995300 384.633179,342.957214 
	C377.913696,342.638550 371.172577,342.776123 365.908081,342.776123 
	C363.283478,352.132721 360.947449,360.460480 358.558838,368.975708 
	C364.545502,368.975708 371.360291,369.391296 378.057495,368.687561 
	C379.760986,368.508545 381.400909,364.905487 382.386475,362.585327 
	C382.651245,361.962006 380.401825,360.270721 379.117889,358.862823 
	C379.328217,356.771851 379.617065,353.899811 380.739258,350.917023 
	C381.010803,350.847839 381.282349,350.778687 382.090027,351.065521 
M141.090042,351.065491 
	C145.593063,352.996948 145.176849,348.905884 145.681503,346.841156 
	C145.955688,345.719330 144.436539,342.995361 143.633163,342.957245 
	C136.913712,342.638580 130.172607,342.776123 124.908142,342.776123 
	C122.283432,352.132721 119.947327,360.460480 117.558632,368.975739 
	C123.545555,368.975739 130.360367,369.391296 137.057571,368.687531 
	C138.761047,368.508575 140.400909,364.905426 141.386444,362.585266 
	C141.651184,361.961975 139.401733,360.270752 138.117813,358.862946 
	C138.328156,356.771912 138.617065,353.899841 139.739288,350.917053 
	C140.010818,350.847870 140.282364,350.778656 141.090042,351.065491 
M279.739258,350.917023 
	C280.010803,350.847839 280.282349,350.778687 281.090027,351.065521 
	C285.592957,352.996796 285.176910,348.905975 285.681488,346.841156 
	C285.955597,345.719269 284.436523,342.995300 283.633179,342.957214 
	C276.913696,342.638550 270.172577,342.776123 264.908142,342.776123 
	C262.283386,352.132690 259.947266,360.460449 257.558563,368.975708 
	C263.545502,368.975708 270.360291,369.391235 277.057526,368.687500 
	C278.760986,368.508484 280.400879,364.905457 281.386414,362.585327 
	C281.651184,361.962006 279.401794,360.270721 278.117889,358.862823 
	C278.328186,356.771851 278.617065,353.899811 279.739258,350.917023 
M245.037842,284.783447 
	C245.318069,284.523834 245.598297,284.264191 245.954330,283.244965 
	C242.931549,276.995789 240.595383,270.284882 236.760132,264.582123 
	C224.118729,245.785233 206.193558,232.905426 186.795792,221.906082 
	C180.936203,218.583435 174.860443,215.641998 168.253586,212.197418 
	C168.253586,218.129486 168.253586,223.044678 168.094040,228.810135 
	C168.054977,236.915405 170.403931,240.686737 177.293304,242.803162 
	C203.370850,250.814285 226.515457,263.539734 244.712692,284.328857 
	C244.712692,284.328857 244.733841,284.354584 245.037842,284.783447 
M328.690887,258.085724 
	C328.690887,254.980209 328.690887,251.874695 328.690887,248.353668 
	C326.945099,248.719482 325.638916,248.820602 324.462921,249.265701 
	C308.900330,255.155945 293.908630,262.167725 280.560791,272.268036 
	C271.508728,279.117706 263.222717,286.707672 257.471710,297.468231 
	C256.748444,298.870880 256.025177,300.273560 254.605881,303.026062 
	C256.806763,301.633514 257.951324,301.129608 258.818970,300.326508 
	C268.341644,291.511993 279.233612,284.787781 291.328247,280.316681 
	C300.489807,276.929840 310.051666,274.637970 319.388519,271.709351 
	C326.622223,269.440399 328.970306,265.968781 328.690887,258.085724 
M250.211380,179.077957 
	C246.899139,178.504242 242.456085,178.678375 242.103271,174.424500 
	C241.719177,169.793533 246.575058,170.209930 249.570007,169.042603 
	C250.010376,168.870956 250.534210,168.913437 251.797440,169.011475 
	C272.421539,175.165497 293.491699,170.383011 314.323547,171.843994 
	C310.354523,170.429901 306.359680,169.414948 302.346466,168.478577 
	C285.223785,164.483459 268.095642,160.511581 250.118729,156.612335 
	C226.456161,162.245316 202.793594,167.878311 179.131027,173.511292 
	C179.135910,173.928589 179.140793,174.345901 179.145676,174.763199 
	C203.086655,182.631638 227.027618,190.500092 251.518951,198.699570 
	C270.173431,192.544968 288.827942,186.390366 309.039612,179.722000 
	C307.152679,189.974686 305.359772,198.802841 304.021271,207.699341 
	C303.725464,209.665482 304.441498,212.511642 305.792725,213.773590 
	C306.927551,214.833450 310.292389,215.004822 311.530701,214.066360 
	C313.002075,212.951279 314.005188,210.185165 313.890411,208.211288 
	C313.591370,203.069061 312.654480,197.954956 311.812469,192.855988 
	C311.083069,188.439011 310.134857,184.058197 309.322479,179.863373 
	C312.543365,178.522385 314.735413,177.609726 316.927429,176.697083 
	C294.841797,177.871506 272.656158,172.943558 250.211380,179.077957 
M250.382233,203.649414 
	C236.088181,198.757965 221.794144,193.866531 207.166763,188.861008 
	C206.082687,197.562622 205.206497,205.470963 204.062546,213.340408 
	C203.614578,216.422073 204.742233,218.109192 207.237671,219.793457 
	C218.650253,227.496140 229.898743,235.441467 241.256897,243.225616 
	C244.498764,245.447357 247.911072,247.420410 251.924393,249.323792 
	C266.420837,239.309174 280.938171,229.324417 295.374878,219.224426 
	C296.556519,218.397751 298.040405,216.712799 297.940491,215.550751 
	C297.204071,206.985504 296.100586,198.451828 295.032928,189.218811 
	C279.901855,194.292053 265.464569,199.132660 250.382233,203.649414 
M306.695709,358.801880 
	C306.706024,359.615417 306.909882,360.485382 306.692261,361.232513 
	C305.862610,364.080383 305.117523,367.164398 308.479218,368.588928 
	C312.009613,370.084991 315.619415,369.846191 317.763428,366.767273 
	C316.905914,362.615723 316.174072,359.072662 315.758148,357.059174 
	C317.488159,353.536133 319.601746,351.054474 319.628235,348.550690 
	C319.646515,346.820526 316.906281,343.712402 315.182678,343.552765 
	C308.714081,342.953735 302.156708,343.312805 296.911255,343.312805 
	C294.406952,352.141968 292.074188,360.366364 289.771027,368.486389 
	C293.665131,368.486389 298.111420,368.486389 302.767670,368.486389 
	C300.211884,362.735138 301.799042,358.412018 306.695709,358.801880 
M151.125305,364.209198 
	C150.293457,365.517548 149.461594,366.825867 148.091843,368.980194 
	C153.861511,368.980194 158.772034,369.113098 163.672958,368.952576 
	C173.896591,368.617767 179.916794,362.475555 180.325089,352.279938 
	C180.510803,347.641998 178.488693,344.128143 174.025253,343.467224 
	C168.062469,342.584320 161.946198,342.737976 157.263779,342.512360 
	C155.074417,350.294342 153.219101,356.888977 151.125305,364.209198 
M330.237579,351.355957 
	C332.472565,354.054077 334.695801,356.762085 336.947815,359.445953 
	C337.963623,360.656525 339.106049,361.770935 340.000488,363.061096 
	C340.119110,363.232239 338.931519,364.767517 338.650299,364.681793 
	C336.996490,364.177826 335.395691,363.449860 333.857178,362.644379 
	C333.316650,362.361389 333.025238,361.625366 332.581787,361.130493 
	C329.525269,357.719666 328.107056,358.010315 326.502441,362.382751 
	C326.102112,363.473724 325.607971,364.562378 325.435333,365.694519 
	C325.300049,366.581909 325.271393,367.885651 325.787750,368.361328 
	C326.318512,368.850281 327.965057,368.981323 328.435333,368.538422 
	C330.762329,366.346954 332.806274,367.498871 335.202911,368.413361 
	C340.799072,370.548737 347.036499,368.529877 349.260559,364.188416 
	C351.629272,359.564606 350.120758,356.435364 343.723694,352.167511 
	C342.140656,351.111359 340.851624,349.614502 339.427429,348.320221 
	C339.859039,347.676758 340.290680,347.033264 340.722290,346.389771 
	C342.550903,347.271240 344.682678,347.807465 346.152100,349.097931 
	C350.842194,353.216736 351.356262,353.178375 353.047729,347.313232 
	C353.402802,346.081909 353.637695,344.815918 353.941406,343.508118 
	C350.022369,343.233795 346.413208,343.274475 342.914337,342.673340 
	C336.263977,341.530670 332.186005,343.928741 330.237579,351.355957 
M209.500458,363.886871 
	C210.588898,360.764374 211.486160,357.554596 212.853424,354.559418 
	C213.459076,353.232635 215.065613,352.386200 216.127930,351.238586 
	C217.458160,349.801514 219.201675,348.446045 219.770142,346.725952 
	C220.075531,345.801910 218.407013,343.207672 217.431152,343.095917 
	C215.563202,342.881958 212.960175,343.323059 211.754288,344.558441 
	C210.265717,346.083344 209.788834,348.660736 209.056519,350.844269 
	C207.845383,354.455505 207.111191,358.274719 205.479248,361.671570 
	C204.878998,362.920959 202.302582,363.220917 200.627548,363.953918 
	C200.174774,362.529022 199.061752,360.930695 199.382629,359.709015 
	C200.832687,354.188507 202.688385,348.774536 204.476913,343.070374 
	C200.920456,343.070374 196.748886,343.070374 193.365631,343.070374 
	C191.996643,348.681122 190.656143,353.885254 189.469101,359.124176 
	C188.347000,364.076416 189.952682,367.617584 194.248047,368.581696 
	C199.766281,369.820282 205.237213,369.851990 209.500458,363.886871 
M246.577988,353.852295 
	C247.765198,351.998657 248.325470,349.543060 251.727295,350.743378 
	C252.674713,351.077667 255.043716,349.312592 255.685547,347.989258 
	C256.225372,346.876190 255.694458,344.308075 254.751144,343.644806 
	C253.532211,342.787750 251.117004,342.548828 249.790924,343.204529 
	C248.171829,344.005188 246.992737,345.905304 245.904007,347.519287 
	C244.312332,349.878876 242.970306,352.406860 241.521866,354.863068 
	C241.109207,354.762482 240.696564,354.661865 240.283905,354.561279 
	C240.283905,350.751953 240.283905,346.942627 240.283905,343.065918 
	C235.812454,343.065918 231.620438,343.065918 227.418304,343.065918 
	C228.333221,346.118500 229.303665,348.704529 229.864899,351.376495 
	C230.784149,355.752991 231.264282,360.226379 232.294586,364.572388 
	C232.665939,366.138824 234.089233,367.455872 235.032440,368.886749 
	C236.450562,367.940643 238.307800,367.295868 239.203201,365.991058 
	C241.730026,362.308868 243.862045,358.355713 246.577988,353.852295 
M236.199005,151.877045 
	C236.833496,151.441574 238.079391,150.779388 238.014145,150.603409 
	C235.659866,144.254440 233.183334,137.950790 230.723755,131.640854 
	C230.312134,131.788376 229.900528,131.935898 229.488922,132.083420 
	C231.641953,138.469254 233.794983,144.855087 236.199005,151.877045 
M224.867447,145.724899 
	C226.543106,148.588196 228.218765,151.451508 229.894424,154.314804 
	C230.446396,153.970215 230.998367,153.625641 231.550339,153.281052 
	C228.180969,147.751434 224.811615,142.221802 221.442245,136.692169 
	C221.052185,136.927338 220.662109,137.162506 220.272049,137.397675 
	C221.686295,139.956680 223.100540,142.515701 224.867447,145.724899 
M271.138092,135.649643 
	C270.832794,135.210175 270.527496,134.770691 270.222198,134.331223 
	C267.922607,140.146423 265.623016,145.961624 263.323425,151.776825 
	C263.965302,152.017624 264.607208,152.258423 265.249115,152.499237 
	C267.167206,147.099564 269.085297,141.699875 271.138092,135.649643 
M249.958359,124.116119 
	C250.272598,125.569763 250.586823,127.023399 251.154175,129.647934 
	C251.154175,120.899826 251.154175,113.609459 251.154175,106.319092 
	C250.754059,106.324829 250.353943,106.330559 249.953827,106.336296 
	C249.953827,111.955818 249.953827,117.575333 249.958359,124.116119 
M280.894989,138.526962 
	C280.884857,138.214218 280.901489,137.897095 280.851654,137.590820 
	C280.831116,137.464630 280.667603,137.361694 280.569122,137.248169 
	C277.125977,142.583252 273.682861,147.918335 270.239716,153.253418 
	C270.890472,153.636185 271.541229,154.018967 272.191986,154.401749 
	C274.986053,149.323563 277.780090,144.245377 280.894989,138.526962 
M214.145599,144.298141 
	C213.561722,144.194199 212.977844,144.090271 211.692291,143.861450 
	C215.631622,148.472610 219.069778,152.497131 222.507950,156.521667 
	C222.958527,156.119476 223.409103,155.717285 223.859680,155.315079 
	C220.801102,151.794769 217.742538,148.274445 214.145599,144.298141 
M242.258560,137.257568 
	C240.037384,142.152603 242.722672,146.317719 243.421982,150.778290 
	C244.014374,150.692307 244.606781,150.606339 245.199173,150.520370 
	C244.390060,146.301682 243.580948,142.083008 242.258560,137.257568 
M241.331680,135.025421 
	C241.144333,134.886230 240.956985,134.747025 240.769638,134.607819 
	C240.887573,134.806274 241.005508,135.004715 241.331680,135.025421 
M281.725769,134.475052 
	C281.725769,134.475052 282.201385,134.498184 282.201385,134.498184 
	C282.201385,134.498184 281.891541,134.584259 281.725769,134.475052 
z"/>
<path fill="#159997" opacity="1.000000" stroke="none" 
	d="
M251.245224,249.507507 
	C247.911072,247.420410 244.498764,245.447357 241.256897,243.225616 
	C229.898743,235.441467 218.650253,227.496140 207.237671,219.793457 
	C204.742233,218.109192 203.614578,216.422073 204.062546,213.340408 
	C205.206497,205.470963 206.082687,197.562622 207.166763,188.861008 
	C221.794144,193.866531 236.088181,198.757965 250.707611,204.281830 
	C251.103729,219.778671 251.174484,234.643097 251.245224,249.507507 
z"/>
<path fill="#1ABEBC" opacity="1.000000" stroke="none" 
	d="
M251.584808,249.415649 
	C251.174484,234.643097 251.103729,219.778671 251.030151,204.443771 
	C265.464569,199.132660 279.901855,194.292053 295.032928,189.218811 
	C296.100586,198.451828 297.204071,206.985504 297.940491,215.550751 
	C298.040405,216.712799 296.556519,218.397751 295.374878,219.224426 
	C280.938171,229.324417 266.420837,239.309174 251.584808,249.415649 
z"/>
<path fill="#169997" opacity="1.000000" stroke="none" 
	d="
M250.968597,198.368546 
	C227.027618,190.500092 203.086655,182.631638 179.145676,174.763199 
	C179.140793,174.345901 179.135910,173.928589 179.131027,173.511292 
	C202.793594,167.878311 226.456161,162.245316 250.561523,157.066925 
	C251.009369,161.299957 251.014404,165.078415 251.019440,168.856857 
	C250.534210,168.913437 250.010376,168.870956 249.570007,169.042603 
	C246.575058,170.209930 241.719177,169.793533 242.103271,174.424500 
	C242.456085,178.678375 246.899139,178.504242 250.608093,179.625092 
	C250.992737,186.237671 250.980682,192.303116 250.968597,198.368546 
z"/>
<path fill="#1EBFBE" opacity="1.000000" stroke="none" 
	d="
M251.243774,198.534058 
	C250.980682,192.303116 250.992737,186.237671 250.995636,179.722473 
	C272.656158,172.943558 294.841797,177.871506 316.927429,176.697083 
	C314.735413,177.609726 312.543365,178.522385 309.322479,179.863373 
	C310.134857,184.058197 311.083069,188.439011 311.812469,192.855988 
	C312.654480,197.954956 313.591370,203.069061 313.890411,208.211288 
	C314.005188,210.185165 313.002075,212.951279 311.530701,214.066360 
	C310.292389,215.004822 306.927551,214.833450 305.792725,213.773590 
	C304.441498,212.511642 303.725464,209.665482 304.021271,207.699341 
	C305.359772,198.802841 307.152679,189.974686 309.039612,179.722000 
	C288.827942,186.390366 270.173431,192.544968 251.243774,198.534058 
z"/>
<path fill="#1F76BB" opacity="1.000000" stroke="none" 
	d="
M244.686005,284.354980 
	C226.515457,263.539734 203.370850,250.814285 177.293304,242.803162 
	C170.403931,240.686737 168.054977,236.915405 168.577530,228.393341 
	C169.727219,227.998322 170.420898,227.905792 171.055664,228.058350 
	C196.104614,234.079254 218.153870,245.284149 234.215088,266.045715 
	C238.475555,271.553009 241.236526,278.220306 244.686005,284.354980 
z"/>
<path fill="#1F76BB" opacity="1.000000" stroke="none" 
	d="
M333.833282,227.966568 
	C334.339508,237.304718 332.099548,240.328857 323.243103,243.231918 
	C298.607147,251.307343 276.065826,262.845062 258.405396,282.616272 
	C258.529236,280.977783 258.799377,279.473297 259.509949,278.218140 
	C268.443481,262.438293 280.817200,250.020172 296.669403,241.259048 
	C308.299683,234.831253 320.424988,229.541000 333.833282,227.966568 
z"/>
<path fill="#1A6098" opacity="1.000000" stroke="none" 
	d="
M333.905640,227.507294 
	C320.424988,229.541000 308.299683,234.831253 296.669403,241.259048 
	C280.817200,250.020172 268.443481,262.438293 259.509949,278.218140 
	C258.799377,279.473297 258.529236,280.977783 258.098022,282.747589 
	C258.141632,283.128784 258.093933,283.079285 257.860657,283.174377 
	C257.494049,283.607635 257.360687,283.945801 257.227325,284.283966 
	C257.227325,284.283966 257.186523,284.153534 256.939301,284.244415 
	C256.463898,284.896881 256.235687,285.458496 256.007507,286.020081 
	C255.959518,284.940979 255.611542,283.770355 255.908600,282.796478 
	C260.259979,268.531433 269.183441,257.273102 279.823639,247.269943 
	C294.970245,233.030182 312.497803,222.356735 331.285675,213.654343 
	C331.994507,213.326019 332.792816,213.190887 333.977997,212.838196 
	C333.977997,217.826218 333.977997,222.437119 333.905640,227.507294 
z"/>
<path fill="#2277BC" opacity="1.000000" stroke="none" 
	d="
M328.420502,258.963470 
	C328.970306,265.968781 326.622223,269.440399 319.388519,271.709351 
	C310.051666,274.637970 300.489807,276.929840 291.328247,280.316681 
	C279.233612,284.787781 268.341644,291.511993 258.818970,300.326508 
	C257.951324,301.129608 256.806763,301.633514 254.605881,303.026062 
	C256.025177,300.273560 256.748444,298.870880 257.942566,297.442017 
	C263.436157,292.284485 268.175201,286.833130 273.535248,282.082397 
	C289.176300,268.219360 307.997559,261.622406 328.420502,258.963470 
z"/>
<path fill="#1C6199" opacity="1.000000" stroke="none" 
	d="
M244.699341,284.341919 
	C241.236526,278.220306 238.475555,271.553009 234.215088,266.045715 
	C218.153870,245.284149 196.104614,234.079254 171.055664,228.058350 
	C170.420898,227.905792 169.727219,227.998322 168.657303,227.968201 
	C168.253586,223.044678 168.253586,218.129486 168.253586,212.197418 
	C174.860443,215.641998 180.936203,218.583435 186.795792,221.906082 
	C206.193558,232.905426 224.118729,245.785233 236.760132,264.582123 
	C240.595383,270.284882 242.931549,276.995789 245.621765,283.684448 
	C245.104080,284.200867 244.918961,284.277740 244.733841,284.354584 
	C244.733841,284.354584 244.712692,284.328857 244.699341,284.341919 
z"/>
<path fill="#1F76BB" opacity="1.000000" stroke="none" 
	d="
M244.139008,297.978516 
	C244.522949,299.110382 244.906891,300.242279 245.747025,302.718994 
	C228.265640,286.365082 208.608871,277.606140 186.937973,272.890228 
	C185.166031,272.504608 183.426254,271.926727 181.714310,271.317932 
	C175.566742,269.131714 173.775787,266.570496 174.148270,259.461639 
	C181.727737,260.632263 188.944168,261.720154 195.796158,263.935364 
	C213.783539,269.750580 229.268814,279.414734 240.638947,294.943024 
	C241.244019,295.769379 242.480606,296.133362 243.423203,296.712585 
	C243.423203,296.712585 243.306671,296.834229 243.294464,297.047241 
	C243.567856,297.499695 243.853424,297.739105 244.139008,297.978516 
z"/>
<path fill="#2278BD" opacity="1.000000" stroke="none" 
	d="
M306.399536,358.520233 
	C301.799042,358.412018 300.211884,362.735138 302.767670,368.486389 
	C298.111420,368.486389 293.665131,368.486389 289.771027,368.486389 
	C292.074188,360.366364 294.406952,352.141968 296.911255,343.312805 
	C302.156708,343.312805 308.714081,342.953735 315.182678,343.552765 
	C316.906281,343.712402 319.646515,346.820526 319.628235,348.550690 
	C319.601746,351.054474 317.488159,353.536133 315.758148,357.059174 
	C316.174072,359.072662 316.905914,362.615723 317.763428,366.767273 
	C315.619415,369.846191 312.009613,370.084991 308.479218,368.588928 
	C305.117523,367.164398 305.862610,364.080383 306.692261,361.232513 
	C306.909882,360.485382 306.706024,359.615417 306.399536,358.520233 
M309.761536,348.586334 
	C308.711884,348.040527 307.662231,347.494751 306.612579,346.948944 
	C305.728607,349.053192 304.844604,351.157440 303.811340,353.617065 
	C308.085876,354.223785 309.277863,352.197174 309.761536,348.586334 
z"/>
<path fill="#2278BD" opacity="1.000000" stroke="none" 
	d="
M151.244537,363.846436 
	C153.219101,356.888977 155.074417,350.294342 157.263779,342.512360 
	C161.946198,342.737976 168.062469,342.584320 174.025253,343.467224 
	C178.488693,344.128143 180.510803,347.641998 180.325089,352.279938 
	C179.916794,362.475555 173.896591,368.617767 163.672958,368.952576 
	C158.772034,369.113098 153.861511,368.980194 148.091843,368.980194 
	C149.461594,366.825867 150.293457,365.517548 151.244537,363.846436 
M170.099747,352.823425 
	C170.470734,349.889343 171.428741,346.648315 166.319672,346.179108 
	C164.580795,352.388397 162.861465,358.527893 161.142136,364.667389 
	C161.502823,365.015808 161.863510,365.364197 162.224197,365.712616 
	C163.844772,364.488922 166.025055,363.587219 166.956970,361.967346 
	C168.415894,359.431335 169.030838,356.409790 170.099747,352.823425 
z"/>
<path fill="#1CBFBD" opacity="1.000000" stroke="none" 
	d="
M251.408432,168.934174 
	C251.014404,165.078415 251.009369,161.299957 250.986923,157.026367 
	C268.095642,160.511581 285.223785,164.483459 302.346466,168.478577 
	C306.359680,169.414948 310.354523,170.429901 314.323547,171.843994 
	C293.491699,170.383011 272.421539,175.165497 251.408432,168.934174 
z"/>
<path fill="#2379BD" opacity="1.000000" stroke="none" 
	d="
M278.905914,351.027771 
	C278.617065,353.899811 278.328186,356.771851 278.117889,358.862823 
	C279.401794,360.270721 281.651184,361.962006 281.386414,362.585327 
	C280.400879,364.905457 278.760986,368.508484 277.057526,368.687500 
	C270.360291,369.391235 263.545502,368.975708 257.558563,368.975708 
	C259.947266,360.460449 262.283386,352.132690 264.908142,342.776123 
	C270.172577,342.776123 276.913696,342.638550 283.633179,342.957214 
	C284.436523,342.995300 285.955597,345.719269 285.681488,346.841156 
	C285.176910,348.905975 285.592957,352.996796 280.724640,350.518738 
	C278.957489,348.750732 277.555695,347.529510 276.153931,346.308319 
	C274.625519,348.383911 273.097107,350.459503 271.568726,352.535126 
	C271.965515,352.848083 272.362305,353.161072 272.759125,353.474030 
	C274.808044,352.658600 276.856995,351.843201 278.905914,351.027771 
M273.024811,357.271545 
	C271.489746,359.552338 269.954681,361.833160 268.419617,364.113983 
	C268.990173,364.686554 269.560730,365.259155 270.131317,365.831757 
	C272.670319,364.367371 275.209290,362.903015 277.798828,361.409485 
	C275.888153,359.765259 274.747864,358.783966 273.024811,357.271545 
z"/>
<path fill="#2379BD" opacity="1.000000" stroke="none" 
	d="
M138.905975,351.027802 
	C138.617065,353.899841 138.328156,356.771912 138.117813,358.862946 
	C139.401733,360.270752 141.651184,361.961975 141.386444,362.585266 
	C140.400909,364.905426 138.761047,368.508575 137.057571,368.687531 
	C130.360367,369.391296 123.545555,368.975739 117.558632,368.975739 
	C119.947327,360.460480 122.283432,352.132721 124.908142,342.776123 
	C130.172607,342.776123 136.913712,342.638580 143.633163,342.957245 
	C144.436539,342.995361 145.955688,345.719330 145.681503,346.841156 
	C145.176849,348.905884 145.593063,352.996948 140.724625,350.518707 
	C138.957413,348.750702 137.555618,347.529510 136.153839,346.308319 
	C134.625488,348.383972 133.097137,350.459595 131.568787,352.535217 
	C131.965561,352.848114 132.362335,353.161011 132.759109,353.473877 
	C134.808060,352.658539 136.857025,351.843170 138.905975,351.027802 
M135.819199,359.907501 
	C134.505798,358.859314 133.192398,357.811157 131.402191,356.382446 
	C130.479340,359.535065 129.734955,362.078003 128.957428,364.734192 
	C134.412857,365.072113 135.872513,364.087524 135.819199,359.907501 
z"/>
<path fill="#2379BD" opacity="1.000000" stroke="none" 
	d="
M379.905914,351.027771 
	C379.617065,353.899811 379.328217,356.771851 379.117889,358.862823 
	C380.401825,360.270721 382.651245,361.962006 382.386475,362.585327 
	C381.400909,364.905487 379.760986,368.508545 378.057495,368.687561 
	C371.360291,369.391296 364.545502,368.975708 358.558838,368.975708 
	C360.947449,360.460480 363.283478,352.132721 365.908081,342.776123 
	C371.172577,342.776123 377.913696,342.638550 384.633179,342.957214 
	C385.436523,342.995300 386.955627,345.719299 386.681488,346.841156 
	C386.176880,348.905975 386.592957,352.996796 381.724640,350.518738 
	C379.957489,348.750732 378.555695,347.529510 377.153931,346.308319 
	C375.625549,348.383942 374.097137,350.459534 372.568756,352.535156 
	C372.965546,352.848114 373.362335,353.161072 373.759125,353.474030 
	C375.808044,352.658600 377.856995,351.843170 379.905914,351.027771 
M371.215698,359.947479 
	C370.855286,361.504059 370.494873,363.060638 370.134460,364.617249 
	C370.429840,365.020111 370.725220,365.423004 371.020599,365.825897 
	C373.607269,364.333313 376.193939,362.840698 378.862183,361.301025 
	C376.873138,359.710968 375.702484,358.935974 374.728882,357.963684 
	C372.635437,355.873108 372.056061,357.453857 371.215698,359.947479 
z"/>
<path fill="#2579BE" opacity="1.000000" stroke="none" 
	d="
M330.240051,350.979919 
	C332.186005,343.928741 336.263977,341.530670 342.914337,342.673340 
	C346.413208,343.274475 350.022369,343.233795 353.941406,343.508118 
	C353.637695,344.815918 353.402802,346.081909 353.047729,347.313232 
	C351.356262,353.178375 350.842194,353.216736 346.152100,349.097931 
	C344.682678,347.807465 342.550903,347.271240 340.722290,346.389771 
	C340.290680,347.033264 339.859039,347.676758 339.427429,348.320221 
	C340.851624,349.614502 342.140656,351.111359 343.723694,352.167511 
	C350.120758,356.435364 351.629272,359.564606 349.260559,364.188416 
	C347.036499,368.529877 340.799072,370.548737 335.202911,368.413361 
	C332.806274,367.498871 330.762329,366.346954 328.435333,368.538422 
	C327.965057,368.981323 326.318512,368.850281 325.787750,368.361328 
	C325.271393,367.885651 325.300049,366.581909 325.435333,365.694519 
	C325.607971,364.562378 326.102112,363.473724 326.502441,362.382751 
	C328.107056,358.010315 329.525269,357.719666 332.581787,361.130493 
	C333.025238,361.625366 333.316650,362.361389 333.857178,362.644379 
	C335.395691,363.449860 336.996490,364.177826 338.650299,364.681793 
	C338.931519,364.767517 340.119110,363.232239 340.000488,363.061096 
	C339.106049,361.770935 337.963623,360.656525 336.947815,359.445953 
	C334.695801,356.762085 332.472565,354.054077 330.240051,350.979919 
z"/>
<path fill="#2379BD" opacity="1.000000" stroke="none" 
	d="
M209.288025,364.194885 
	C205.237213,369.851990 199.766281,369.820282 194.248047,368.581696 
	C189.952682,367.617584 188.347000,364.076416 189.469101,359.124176 
	C190.656143,353.885254 191.996643,348.681122 193.365631,343.070374 
	C196.748886,343.070374 200.920456,343.070374 204.476913,343.070374 
	C202.688385,348.774536 200.832687,354.188507 199.382629,359.709015 
	C199.061752,360.930695 200.174774,362.529022 200.627548,363.953918 
	C202.302582,363.220917 204.878998,362.920959 205.479248,361.671570 
	C207.111191,358.274719 207.845383,354.455505 209.056519,350.844269 
	C209.788834,348.660736 210.265717,346.083344 211.754288,344.558441 
	C212.960175,343.323059 215.563202,342.881958 217.431152,343.095917 
	C218.407013,343.207672 220.075531,345.801910 219.770142,346.725952 
	C219.201675,348.446045 217.458160,349.801514 216.127930,351.238586 
	C215.065613,352.386200 213.459076,353.232635 212.853424,354.559418 
	C211.486160,357.554596 210.588898,360.764374 209.288025,364.194885 
z"/>
<path fill="#1C6199" opacity="1.000000" stroke="none" 
	d="
M328.555695,258.524597 
	C307.997559,261.622406 289.176300,268.219360 273.535248,282.082397 
	C268.175201,286.833130 263.436157,292.284485 258.205994,297.238525 
	C263.222717,286.707672 271.508728,279.117706 280.560791,272.268036 
	C293.908630,262.167725 308.900330,255.155945 324.462921,249.265701 
	C325.638916,248.820602 326.945099,248.719482 328.690887,248.353668 
	C328.690887,251.874695 328.690887,254.980209 328.555695,258.524597 
z"/>
<path fill="#20649B" opacity="1.000000" stroke="none" 
	d="
M243.345337,296.371094 
	C242.480606,296.133362 241.244019,295.769379 240.638947,294.943024 
	C229.268814,279.414734 213.783539,269.750580 195.796158,263.935364 
	C188.944168,261.720154 181.727737,260.632263 174.237640,259.043640 
	C173.605560,255.618362 173.413269,252.179962 173.159058,247.634293 
	C178.887207,249.899338 183.913040,251.726486 188.809540,253.851624 
	C206.583328,261.565704 223.135162,271.154266 236.091171,285.935852 
	C238.798248,289.024353 240.891388,292.650970 243.345337,296.371094 
z"/>
<path fill="#2579BE" opacity="1.000000" stroke="none" 
	d="
M246.363831,354.180817 
	C243.862045,358.355713 241.730026,362.308868 239.203201,365.991058 
	C238.307800,367.295868 236.450562,367.940643 235.032440,368.886749 
	C234.089233,367.455872 232.665939,366.138824 232.294586,364.572388 
	C231.264282,360.226379 230.784149,355.752991 229.864899,351.376495 
	C229.303665,348.704529 228.333221,346.118500 227.418304,343.065918 
	C231.620438,343.065918 235.812454,343.065918 240.283905,343.065918 
	C240.283905,346.942627 240.283905,350.751953 240.283905,354.561279 
	C240.696564,354.661865 241.109207,354.762482 241.521866,354.863068 
	C242.970306,352.406860 244.312332,349.878876 245.904007,347.519287 
	C246.992737,345.905304 248.171829,344.005188 249.790924,343.204529 
	C251.117004,342.548828 253.532211,342.787750 254.751144,343.644806 
	C255.694458,344.308075 256.225372,346.876190 255.685547,347.989258 
	C255.043716,349.312592 252.674713,351.077667 251.727295,350.743378 
	C248.325470,349.543060 247.765198,351.998657 246.363831,354.180817 
z"/>
<path fill="#2578BC" opacity="1.000000" stroke="none" 
	d="
M299.372406,289.957275 
	C299.758728,294.944702 296.347717,297.359985 292.495056,298.394684 
	C279.333374,301.929565 266.760284,306.501251 256.623688,316.270233 
	C256.325378,315.974365 256.027069,315.678528 255.728775,315.382660 
	C256.950439,313.375519 258.172119,311.368378 259.856262,309.344452 
	C260.521851,308.843109 260.724945,308.358582 260.928040,307.874054 
	C260.928040,307.874054 260.956085,307.957520 261.273071,307.948364 
	C262.537109,307.323151 263.562195,306.799622 264.419250,306.076874 
	C274.595520,297.495483 286.307709,292.264984 299.372406,289.957275 
z"/>
<path fill="#2277BC" opacity="1.000000" stroke="none" 
	d="
M243.981720,312.015381 
	C244.773972,313.446198 245.566208,314.877014 246.358459,316.307831 
	C236.303879,307.216431 224.546921,302.328766 211.900803,299.136627 
	C207.380096,297.995514 203.356628,296.244537 203.187027,290.416840 
	C212.098389,293.349060 220.695801,296.316803 228.905273,300.121552 
	C233.424408,302.215973 237.291229,305.717834 241.452148,308.585144 
	C241.452148,308.585144 241.417908,308.708771 241.368149,308.982208 
	C241.659927,309.434753 242.001465,309.613892 242.343002,309.792999 
	C242.343002,309.792999 242.190292,309.860870 242.233414,310.069794 
	C242.586197,310.496094 242.895874,310.713470 243.205551,310.930847 
	C243.205551,310.930847 243.066879,310.952026 243.143967,311.135437 
	C243.474609,311.551056 243.728165,311.783203 243.981720,312.015381 
z"/>
<path fill="#20649B" opacity="1.000000" stroke="none" 
	d="
M241.363525,308.267242 
	C237.291229,305.717834 233.424408,302.215973 228.905273,300.121552 
	C220.695801,296.316803 212.098389,293.349060 203.254562,290.032715 
	C202.680984,288.280182 202.515732,286.526947 202.262741,283.843018 
	C217.560104,289.222565 231.012741,295.938690 241.363525,308.267242 
z"/>
<path fill="#20649B" opacity="1.000000" stroke="none" 
	d="
M299.513550,289.575653 
	C286.307709,292.264984 274.595520,297.495483 264.419250,306.076874 
	C263.562195,306.799622 262.537109,307.323151 261.230591,307.936829 
	C270.887970,295.677582 284.581604,289.412933 299.654663,283.791321 
	C299.654663,286.046600 299.654663,287.620331 299.513550,289.575653 
z"/>
<path fill="#F47A52" opacity="1.000000" stroke="none" 
	d="
M236.073517,151.558990 
	C233.794983,144.855087 231.641953,138.469254 229.488922,132.083420 
	C229.900528,131.935898 230.312134,131.788376 230.723755,131.640854 
	C233.183334,137.950790 235.659866,144.254440 238.014145,150.603409 
	C238.079391,150.779388 236.833496,151.441574 236.073517,151.558990 
z"/>
<path fill="#F3744B" opacity="1.000000" stroke="none" 
	d="
M224.691116,145.399811 
	C223.100540,142.515701 221.686295,139.956680 220.272049,137.397675 
	C220.662109,137.162506 221.052185,136.927338 221.442245,136.692169 
	C224.811615,142.221802 228.180969,147.751434 231.550339,153.281052 
	C230.998367,153.625641 230.446396,153.970215 229.894424,154.314804 
	C228.218765,151.451508 226.543106,148.588196 224.691116,145.399811 
z"/>
<path fill="#F3744B" opacity="1.000000" stroke="none" 
	d="
M271.070740,135.974915 
	C269.085297,141.699875 267.167206,147.099564 265.249115,152.499237 
	C264.607208,152.258423 263.965302,152.017624 263.323425,151.776825 
	C265.623016,145.961624 267.922607,140.146423 270.222198,134.331223 
	C270.527496,134.770691 270.832794,135.210175 271.070740,135.974915 
z"/>
<path fill="#F8A98F" opacity="1.000000" stroke="none" 
	d="
M249.956085,123.655487 
	C249.953827,117.575333 249.953827,111.955818 249.953827,106.336296 
	C250.353943,106.330559 250.754059,106.324829 251.154175,106.319092 
	C251.154175,113.609459 251.154175,120.899826 251.154175,129.647934 
	C250.586823,127.023399 250.272598,125.569763 249.956085,123.655487 
z"/>
<path fill="#F47A52" opacity="1.000000" stroke="none" 
	d="
M280.734558,138.847076 
	C277.780090,144.245377 274.986053,149.323563 272.191986,154.401749 
	C271.541229,154.018967 270.890472,153.636185 270.239716,153.253418 
	C273.682861,147.918335 277.125977,142.583252 280.569122,137.248169 
	C280.667603,137.361694 280.831116,137.464630 280.851654,137.590820 
	C280.901489,137.897095 280.884857,138.214218 280.734558,138.847076 
z"/>
<path fill="#E3EEF7" opacity="1.000000" stroke="none" 
	d="
M139.322632,350.972412 
	C136.857025,351.843170 134.808060,352.658539 132.759109,353.473877 
	C132.362335,353.161011 131.965561,352.848114 131.568787,352.535217 
	C133.097137,350.459595 134.625488,348.383972 136.153839,346.308319 
	C137.555618,347.529510 138.957413,348.750702 140.456543,350.340698 
	C140.282364,350.778656 140.010818,350.847870 139.322632,350.972412 
z"/>
<path fill="#E3EEF7" opacity="1.000000" stroke="none" 
	d="
M279.322571,350.972412 
	C276.856995,351.843201 274.808044,352.658600 272.759125,353.474030 
	C272.362305,353.161072 271.965515,352.848083 271.568726,352.535126 
	C273.097107,350.459503 274.625519,348.383911 276.153931,346.308319 
	C277.555695,347.529510 278.957489,348.750732 280.456573,350.340698 
	C280.282349,350.778687 280.010803,350.847839 279.322571,350.972412 
z"/>
<path fill="#E3EEF7" opacity="1.000000" stroke="none" 
	d="
M380.322571,350.972412 
	C377.856995,351.843170 375.808044,352.658600 373.759125,353.474030 
	C373.362335,353.161072 372.965546,352.848114 372.568756,352.535156 
	C374.097137,350.459534 375.625549,348.383942 377.153931,346.308319 
	C378.555695,347.529510 379.957489,348.750732 381.456573,350.340698 
	C381.282349,350.778687 381.010803,350.847839 380.322571,350.972412 
z"/>
<path fill="#F47A52" opacity="1.000000" stroke="none" 
	d="
M260.991608,134.022995 
	C260.293060,139.611343 259.594482,145.199692 258.895935,150.788025 
	C258.206970,150.678741 257.518036,150.569443 256.829071,150.460144 
	C257.801819,145.138901 257.696869,139.640945 260.813110,134.338257 
	C261.025787,134.040161 260.991608,134.022995 260.991608,134.022995 
z"/>
<path fill="#F3744B" opacity="1.000000" stroke="none" 
	d="
M214.414795,144.526123 
	C217.742538,148.274445 220.801102,151.794769 223.859680,155.315079 
	C223.409103,155.717285 222.958527,156.119476 222.507950,156.521667 
	C219.069778,152.497131 215.631622,148.472610 211.692291,143.861450 
	C212.977844,144.090271 213.561722,144.194199 214.414795,144.526123 
z"/>
<path fill="#F47A52" opacity="1.000000" stroke="none" 
	d="
M242.515198,137.560944 
	C243.580948,142.083008 244.390060,146.301682 245.199173,150.520370 
	C244.606781,150.606339 244.014374,150.692307 243.421982,150.778290 
	C242.722672,146.317719 240.037384,142.152603 242.515198,137.560944 
z"/>
<path fill="#F47A52" opacity="1.000000" stroke="none" 
	d="
M241.227570,135.114288 
	C241.005508,135.004715 240.887573,134.806274 240.769638,134.607819 
	C240.956985,134.747025 241.144333,134.886230 241.227570,135.114288 
z"/>
<path fill="#F47A52" opacity="1.000000" stroke="none" 
	d="
M261.034241,134.058868 
	C261.171417,133.766495 261.300110,133.455399 261.250793,133.574677 
	C261.366577,133.342682 261.274902,133.526367 261.087402,133.866516 
	C260.991608,134.022995 261.025787,134.040161 261.034241,134.058868 
z"/>
<path fill="#F47A52" opacity="1.000000" stroke="none" 
	d="
M281.808655,134.529663 
	C281.891541,134.584259 282.201385,134.498184 282.201385,134.498184 
	C282.201385,134.498184 281.725769,134.475052 281.808655,134.529663 
z"/>
<path fill="#1F76BB" opacity="1.000000" stroke="none" 
	d="
M256.278870,285.896057 
	C256.235687,285.458496 256.463898,284.896881 257.005371,284.261841 
	C257.062531,284.716248 256.806366,285.244171 256.278870,285.896057 
z"/>
<path fill="#20649B" opacity="1.000000" stroke="none" 
	d="
M260.690033,307.988770 
	C260.724945,308.358582 260.521851,308.843109 260.148621,309.176361 
	C260.136322,308.717896 260.294159,308.410706 260.690033,307.988770 
z"/>
<path fill="#1F76BB" opacity="1.000000" stroke="none" 
	d="
M257.481232,284.175659 
	C257.360687,283.945801 257.494049,283.607635 257.894714,283.171753 
	C258.019714,283.405151 257.877441,283.736267 257.481232,284.175659 
z"/>
<path fill="#1F76BB" opacity="1.000000" stroke="none" 
	d="
M244.885834,284.569031 
	C244.918961,284.277740 245.104080,284.200867 245.583862,284.064270 
	C245.598297,284.264191 245.318069,284.523834 244.885834,284.569031 
z"/>
<path fill="#20649B" opacity="1.000000" stroke="none" 
	d="
M243.936783,311.744690 
	C243.728165,311.783203 243.474609,311.551056 243.145935,311.065338 
	C243.344513,311.032532 243.618179,311.253265 243.936783,311.744690 
z"/>
<path fill="#20649B" opacity="1.000000" stroke="none" 
	d="
M243.142105,310.644531 
	C242.895874,310.713470 242.586197,310.496094 242.233276,309.986237 
	C242.486221,309.915222 242.782440,310.136719 243.142105,310.644531 
z"/>
<path fill="#20649B" opacity="1.000000" stroke="none" 
	d="
M242.281128,309.509796 
	C242.001465,309.613892 241.659927,309.434753 241.314316,308.947327 
	C241.613235,308.834900 241.916245,309.030731 242.281128,309.509796 
z"/>
<path fill="#20649B" opacity="1.000000" stroke="none" 
	d="
M244.097229,297.689911 
	C243.853424,297.739105 243.567856,297.499695 243.262024,296.969543 
	C243.513016,296.919617 243.784241,297.160461 244.097229,297.689911 
z"/>
<path fill="#E3EEF7" opacity="1.000000" stroke="none" 
	d="
M309.791595,348.977112 
	C309.277863,352.197174 308.085876,354.223785 303.811340,353.617065 
	C304.844604,351.157440 305.728607,349.053192 306.612579,346.948944 
	C307.662231,347.494751 308.711884,348.040527 309.791595,348.977112 
z"/>
<path fill="#F3F8FB" opacity="1.000000" stroke="none" 
	d="
M170.051514,353.208679 
	C169.030838,356.409790 168.415894,359.431335 166.956970,361.967346 
	C166.025055,363.587219 163.844772,364.488922 162.224197,365.712616 
	C161.863510,365.364197 161.502823,365.015808 161.142136,364.667389 
	C162.861465,358.527893 164.580795,352.388397 166.319672,346.179108 
	C171.428741,346.648315 170.470734,349.889343 170.051514,353.208679 
z"/>
<path fill="#FFFFFF" opacity="1.000000" stroke="none" 
	d="
M273.316193,357.537109 
	C274.747864,358.783966 275.888153,359.765259 277.798828,361.409485 
	C275.209290,362.903015 272.670319,364.367371 270.131317,365.831757 
	C269.560730,365.259155 268.990173,364.686554 268.419617,364.113983 
	C269.954681,361.833160 271.489746,359.552338 273.316193,357.537109 
z"/>
<path fill="#FFFFFF" opacity="1.000000" stroke="none" 
	d="
M136.214661,359.947571 
	C135.872513,364.087524 134.412857,365.072113 128.957428,364.734192 
	C129.734955,362.078003 130.479340,359.535065 131.402191,356.382446 
	C133.192398,357.811157 134.505798,358.859314 136.214661,359.947571 
z"/>
<path fill="#FFFFFF" opacity="1.000000" stroke="none" 
	d="
M371.347168,359.569824 
	C372.056061,357.453857 372.635437,355.873108 374.728882,357.963684 
	C375.702484,358.935974 376.873138,359.710968 378.862183,361.301025 
	C376.193939,362.840698 373.607269,364.333313 371.020599,365.825897 
	C370.725220,365.423004 370.429840,365.020111 370.134460,364.617249 
	C370.494873,363.060638 370.855286,361.504059 371.347168,359.569824 
z"/>
</svg>